<svg width="32" height="33" viewBox="0 0 32 33" fill="none" xmlns="http://www.w3.org/2000/svg">
<path d="M16 27.5C16 27.5 3.5 20.5 3.5 12C3.50025 10.4977 4.02082 9.0418 4.97318 7.8799C5.92555 6.71801 7.25093 5.92181 8.72399 5.62669C10.197 5.33156 11.7269 5.55572 13.0533 6.26105C14.3798 6.96638 15.421 8.10935 16 9.49563L16 9.49565C16.579 8.10936 17.6202 6.96639 18.9467 6.26106C20.2731 5.55572 21.8029 5.33156 23.276 5.62669C24.7491 5.92181 26.0745 6.71801 27.0268 7.8799C27.9792 9.0418 28.4997 10.4977 28.5 12C28.5 20.5 16 27.5 16 27.5Z" stroke="white" stroke-width="2" stroke-linecap="round" stroke-linejoin="round"/>
</svg>
